<mxfile host="app.diagrams.net" modified="2023-10-07T05:44:20.938Z" agent="5.0 (Windows NT 10.0; Win64; x64) AppleWebKit/537.36 (KHTML, like Gecko) Chrome/117.0.0.0 Safari/537.36" etag="DykOM_FqWJX99t8epmvS" version="20.8.19" type="github">
  <diagram id="C5RBs43oDa-KdzZeNtuy" name="Page-1">
    <mxGraphModel dx="2722" dy="1742" grid="1" gridSize="10" guides="1" tooltips="1" connect="1" arrows="1" fold="1" page="1" pageScale="1" pageWidth="827" pageHeight="1169" math="0" shadow="0">
      <root>
        <mxCell id="WIyWlLk6GJQsqaUBKTNV-0" />
        <mxCell id="WIyWlLk6GJQsqaUBKTNV-1" parent="WIyWlLk6GJQsqaUBKTNV-0" />
        <mxCell id="2R93lKAkQ-TtFPTku6nc-16" value="Category" style="shape=table;startSize=30;container=1;collapsible=0;childLayout=tableLayout;fixedRows=1;rowLines=0;fontStyle=1;fillColor=#d80073;fontColor=#ffffff;strokeColor=#A50040;" vertex="1" parent="WIyWlLk6GJQsqaUBKTNV-1">
          <mxGeometry x="-820" y="520" width="320" height="270" as="geometry" />
        </mxCell>
        <mxCell id="2R93lKAkQ-TtFPTku6nc-17" value="" style="shape=tableRow;horizontal=0;startSize=0;swimlaneHead=0;swimlaneBody=0;top=0;left=0;bottom=0;right=0;collapsible=0;dropTarget=0;fillColor=none;points=[[0,0.5],[1,0.5]];portConstraint=eastwest;" vertex="1" parent="2R93lKAkQ-TtFPTku6nc-16">
          <mxGeometry y="30" width="320" height="30" as="geometry" />
        </mxCell>
        <mxCell id="2R93lKAkQ-TtFPTku6nc-18" value="_id" style="shape=partialRectangle;html=1;whiteSpace=wrap;connectable=0;fillColor=none;top=0;left=0;bottom=0;right=0;overflow=hidden;pointerEvents=1;" vertex="1" parent="2R93lKAkQ-TtFPTku6nc-17">
          <mxGeometry width="111" height="30" as="geometry">
            <mxRectangle width="111" height="30" as="alternateBounds" />
          </mxGeometry>
        </mxCell>
        <mxCell id="2R93lKAkQ-TtFPTku6nc-19" value="string" style="shape=partialRectangle;html=1;whiteSpace=wrap;connectable=0;fillColor=none;top=0;left=0;bottom=0;right=0;align=center;spacingLeft=6;overflow=hidden;" vertex="1" parent="2R93lKAkQ-TtFPTku6nc-17">
          <mxGeometry x="111" width="209" height="30" as="geometry">
            <mxRectangle width="209" height="30" as="alternateBounds" />
          </mxGeometry>
        </mxCell>
        <mxCell id="2R93lKAkQ-TtFPTku6nc-20" value="" style="shape=tableRow;horizontal=0;startSize=0;swimlaneHead=0;swimlaneBody=0;top=0;left=0;bottom=0;right=0;collapsible=0;dropTarget=0;fillColor=none;points=[[0,0.5],[1,0.5]];portConstraint=eastwest;" vertex="1" parent="2R93lKAkQ-TtFPTku6nc-16">
          <mxGeometry y="60" width="320" height="30" as="geometry" />
        </mxCell>
        <mxCell id="2R93lKAkQ-TtFPTku6nc-21" value="name" style="shape=partialRectangle;html=1;whiteSpace=wrap;connectable=0;fillColor=none;top=0;left=0;bottom=0;right=0;overflow=hidden;" vertex="1" parent="2R93lKAkQ-TtFPTku6nc-20">
          <mxGeometry width="111" height="30" as="geometry">
            <mxRectangle width="111" height="30" as="alternateBounds" />
          </mxGeometry>
        </mxCell>
        <mxCell id="2R93lKAkQ-TtFPTku6nc-22" value="string" style="shape=partialRectangle;html=1;whiteSpace=wrap;connectable=0;fillColor=none;top=0;left=0;bottom=0;right=0;align=center;spacingLeft=6;overflow=hidden;" vertex="1" parent="2R93lKAkQ-TtFPTku6nc-20">
          <mxGeometry x="111" width="209" height="30" as="geometry">
            <mxRectangle width="209" height="30" as="alternateBounds" />
          </mxGeometry>
        </mxCell>
        <mxCell id="2R93lKAkQ-TtFPTku6nc-23" value="" style="shape=tableRow;horizontal=0;startSize=0;swimlaneHead=0;swimlaneBody=0;top=0;left=0;bottom=0;right=0;collapsible=0;dropTarget=0;fillColor=none;points=[[0,0.5],[1,0.5]];portConstraint=eastwest;" vertex="1" parent="2R93lKAkQ-TtFPTku6nc-16">
          <mxGeometry y="90" width="320" height="30" as="geometry" />
        </mxCell>
        <mxCell id="2R93lKAkQ-TtFPTku6nc-24" value="picture" style="shape=partialRectangle;html=1;whiteSpace=wrap;connectable=0;fillColor=none;top=0;left=0;bottom=0;right=0;overflow=hidden;" vertex="1" parent="2R93lKAkQ-TtFPTku6nc-23">
          <mxGeometry width="111" height="30" as="geometry">
            <mxRectangle width="111" height="30" as="alternateBounds" />
          </mxGeometry>
        </mxCell>
        <mxCell id="2R93lKAkQ-TtFPTku6nc-25" value="string" style="shape=partialRectangle;html=1;whiteSpace=wrap;connectable=0;fillColor=none;top=0;left=0;bottom=0;right=0;align=center;spacingLeft=6;overflow=hidden;" vertex="1" parent="2R93lKAkQ-TtFPTku6nc-23">
          <mxGeometry x="111" width="209" height="30" as="geometry">
            <mxRectangle width="209" height="30" as="alternateBounds" />
          </mxGeometry>
        </mxCell>
        <mxCell id="2R93lKAkQ-TtFPTku6nc-26" value="" style="shape=tableRow;horizontal=0;startSize=0;swimlaneHead=0;swimlaneBody=0;top=0;left=0;bottom=0;right=0;collapsible=0;dropTarget=0;fillColor=none;points=[[0,0.5],[1,0.5]];portConstraint=eastwest;" vertex="1" parent="2R93lKAkQ-TtFPTku6nc-16">
          <mxGeometry y="120" width="320" height="30" as="geometry" />
        </mxCell>
        <mxCell id="2R93lKAkQ-TtFPTku6nc-27" value="main_category_id" style="shape=partialRectangle;html=1;whiteSpace=wrap;connectable=0;fillColor=none;top=0;left=0;bottom=0;right=0;overflow=hidden;" vertex="1" parent="2R93lKAkQ-TtFPTku6nc-26">
          <mxGeometry width="111" height="30" as="geometry">
            <mxRectangle width="111" height="30" as="alternateBounds" />
          </mxGeometry>
        </mxCell>
        <mxCell id="2R93lKAkQ-TtFPTku6nc-28" value="string?" style="shape=partialRectangle;html=1;whiteSpace=wrap;connectable=0;fillColor=none;top=0;left=0;bottom=0;right=0;align=center;spacingLeft=6;overflow=hidden;" vertex="1" parent="2R93lKAkQ-TtFPTku6nc-26">
          <mxGeometry x="111" width="209" height="30" as="geometry">
            <mxRectangle width="209" height="30" as="alternateBounds" />
          </mxGeometry>
        </mxCell>
        <mxCell id="2R93lKAkQ-TtFPTku6nc-29" value="" style="shape=tableRow;horizontal=0;startSize=0;swimlaneHead=0;swimlaneBody=0;top=0;left=0;bottom=0;right=0;collapsible=0;dropTarget=0;fillColor=none;points=[[0,0.5],[1,0.5]];portConstraint=eastwest;" vertex="1" parent="2R93lKAkQ-TtFPTku6nc-16">
          <mxGeometry y="150" width="320" height="30" as="geometry" />
        </mxCell>
        <mxCell id="2R93lKAkQ-TtFPTku6nc-30" value="tax_id" style="shape=partialRectangle;html=1;whiteSpace=wrap;connectable=0;fillColor=none;top=0;left=0;bottom=0;right=0;overflow=hidden;" vertex="1" parent="2R93lKAkQ-TtFPTku6nc-29">
          <mxGeometry width="111" height="30" as="geometry">
            <mxRectangle width="111" height="30" as="alternateBounds" />
          </mxGeometry>
        </mxCell>
        <mxCell id="2R93lKAkQ-TtFPTku6nc-31" value="string" style="shape=partialRectangle;html=1;whiteSpace=wrap;connectable=0;fillColor=none;top=0;left=0;bottom=0;right=0;align=center;spacingLeft=6;overflow=hidden;" vertex="1" parent="2R93lKAkQ-TtFPTku6nc-29">
          <mxGeometry x="111" width="209" height="30" as="geometry">
            <mxRectangle width="209" height="30" as="alternateBounds" />
          </mxGeometry>
        </mxCell>
        <mxCell id="2R93lKAkQ-TtFPTku6nc-32" value="" style="shape=tableRow;horizontal=0;startSize=0;swimlaneHead=0;swimlaneBody=0;top=0;left=0;bottom=0;right=0;collapsible=0;dropTarget=0;fillColor=none;points=[[0,0.5],[1,0.5]];portConstraint=eastwest;" vertex="1" parent="2R93lKAkQ-TtFPTku6nc-16">
          <mxGeometry y="180" width="320" height="30" as="geometry" />
        </mxCell>
        <mxCell id="2R93lKAkQ-TtFPTku6nc-33" value="sale_point_ids" style="shape=partialRectangle;html=1;whiteSpace=wrap;connectable=0;fillColor=none;top=0;left=0;bottom=0;right=0;overflow=hidden;" vertex="1" parent="2R93lKAkQ-TtFPTku6nc-32">
          <mxGeometry width="111" height="30" as="geometry">
            <mxRectangle width="111" height="30" as="alternateBounds" />
          </mxGeometry>
        </mxCell>
        <mxCell id="2R93lKAkQ-TtFPTku6nc-34" value="string[]" style="shape=partialRectangle;html=1;whiteSpace=wrap;connectable=0;fillColor=none;top=0;left=0;bottom=0;right=0;align=center;spacingLeft=6;overflow=hidden;" vertex="1" parent="2R93lKAkQ-TtFPTku6nc-32">
          <mxGeometry x="111" width="209" height="30" as="geometry">
            <mxRectangle width="209" height="30" as="alternateBounds" />
          </mxGeometry>
        </mxCell>
        <mxCell id="2R93lKAkQ-TtFPTku6nc-35" value="" style="shape=tableRow;horizontal=0;startSize=0;swimlaneHead=0;swimlaneBody=0;top=0;left=0;bottom=0;right=0;collapsible=0;dropTarget=0;fillColor=none;points=[[0,0.5],[1,0.5]];portConstraint=eastwest;" vertex="1" parent="2R93lKAkQ-TtFPTku6nc-16">
          <mxGeometry y="210" width="320" height="30" as="geometry" />
        </mxCell>
        <mxCell id="2R93lKAkQ-TtFPTku6nc-36" value="categories" style="shape=partialRectangle;html=1;whiteSpace=wrap;connectable=0;fillColor=none;top=0;left=0;bottom=0;right=0;overflow=hidden;" vertex="1" parent="2R93lKAkQ-TtFPTku6nc-35">
          <mxGeometry width="111" height="30" as="geometry">
            <mxRectangle width="111" height="30" as="alternateBounds" />
          </mxGeometry>
        </mxCell>
        <mxCell id="2R93lKAkQ-TtFPTku6nc-37" value="string[]" style="shape=partialRectangle;html=1;whiteSpace=wrap;connectable=0;fillColor=none;top=0;left=0;bottom=0;right=0;align=center;spacingLeft=6;overflow=hidden;" vertex="1" parent="2R93lKAkQ-TtFPTku6nc-35">
          <mxGeometry x="111" width="209" height="30" as="geometry">
            <mxRectangle width="209" height="30" as="alternateBounds" />
          </mxGeometry>
        </mxCell>
        <mxCell id="2R93lKAkQ-TtFPTku6nc-38" value="" style="shape=tableRow;horizontal=0;startSize=0;swimlaneHead=0;swimlaneBody=0;top=0;left=0;bottom=0;right=0;collapsible=0;dropTarget=0;fillColor=none;points=[[0,0.5],[1,0.5]];portConstraint=eastwest;" vertex="1" parent="2R93lKAkQ-TtFPTku6nc-16">
          <mxGeometry y="240" width="320" height="30" as="geometry" />
        </mxCell>
        <mxCell id="2R93lKAkQ-TtFPTku6nc-39" value="products" style="shape=partialRectangle;html=1;whiteSpace=wrap;connectable=0;fillColor=none;top=0;left=0;bottom=0;right=0;overflow=hidden;" vertex="1" parent="2R93lKAkQ-TtFPTku6nc-38">
          <mxGeometry width="111" height="30" as="geometry">
            <mxRectangle width="111" height="30" as="alternateBounds" />
          </mxGeometry>
        </mxCell>
        <mxCell id="2R93lKAkQ-TtFPTku6nc-40" value="string[]" style="shape=partialRectangle;html=1;whiteSpace=wrap;connectable=0;fillColor=none;top=0;left=0;bottom=0;right=0;align=center;spacingLeft=6;overflow=hidden;" vertex="1" parent="2R93lKAkQ-TtFPTku6nc-38">
          <mxGeometry x="111" width="209" height="30" as="geometry">
            <mxRectangle width="209" height="30" as="alternateBounds" />
          </mxGeometry>
        </mxCell>
        <mxCell id="2R93lKAkQ-TtFPTku6nc-91" value="SalePoint" style="shape=table;startSize=30;container=1;collapsible=0;childLayout=tableLayout;fixedRows=1;rowLines=0;fontStyle=1;fillColor=#008a00;fontColor=#ffffff;strokeColor=#005700;" vertex="1" parent="WIyWlLk6GJQsqaUBKTNV-1">
          <mxGeometry x="-240" y="20" width="320" height="270" as="geometry" />
        </mxCell>
        <mxCell id="2R93lKAkQ-TtFPTku6nc-92" value="" style="shape=tableRow;horizontal=0;startSize=0;swimlaneHead=0;swimlaneBody=0;top=0;left=0;bottom=0;right=0;collapsible=0;dropTarget=0;fillColor=none;points=[[0,0.5],[1,0.5]];portConstraint=eastwest;" vertex="1" parent="2R93lKAkQ-TtFPTku6nc-91">
          <mxGeometry y="30" width="320" height="30" as="geometry" />
        </mxCell>
        <mxCell id="2R93lKAkQ-TtFPTku6nc-93" value="_id" style="shape=partialRectangle;html=1;whiteSpace=wrap;connectable=0;fillColor=none;top=0;left=0;bottom=0;right=0;overflow=hidden;pointerEvents=1;" vertex="1" parent="2R93lKAkQ-TtFPTku6nc-92">
          <mxGeometry width="111" height="30" as="geometry">
            <mxRectangle width="111" height="30" as="alternateBounds" />
          </mxGeometry>
        </mxCell>
        <mxCell id="2R93lKAkQ-TtFPTku6nc-94" value="string" style="shape=partialRectangle;html=1;whiteSpace=wrap;connectable=0;fillColor=none;top=0;left=0;bottom=0;right=0;align=center;spacingLeft=6;overflow=hidden;" vertex="1" parent="2R93lKAkQ-TtFPTku6nc-92">
          <mxGeometry x="111" width="209" height="30" as="geometry">
            <mxRectangle width="209" height="30" as="alternateBounds" />
          </mxGeometry>
        </mxCell>
        <mxCell id="2R93lKAkQ-TtFPTku6nc-95" value="" style="shape=tableRow;horizontal=0;startSize=0;swimlaneHead=0;swimlaneBody=0;top=0;left=0;bottom=0;right=0;collapsible=0;dropTarget=0;fillColor=none;points=[[0,0.5],[1,0.5]];portConstraint=eastwest;" vertex="1" parent="2R93lKAkQ-TtFPTku6nc-91">
          <mxGeometry y="60" width="320" height="30" as="geometry" />
        </mxCell>
        <mxCell id="2R93lKAkQ-TtFPTku6nc-96" value="name" style="shape=partialRectangle;html=1;whiteSpace=wrap;connectable=0;fillColor=none;top=0;left=0;bottom=0;right=0;overflow=hidden;" vertex="1" parent="2R93lKAkQ-TtFPTku6nc-95">
          <mxGeometry width="111" height="30" as="geometry">
            <mxRectangle width="111" height="30" as="alternateBounds" />
          </mxGeometry>
        </mxCell>
        <mxCell id="2R93lKAkQ-TtFPTku6nc-97" value="string" style="shape=partialRectangle;html=1;whiteSpace=wrap;connectable=0;fillColor=none;top=0;left=0;bottom=0;right=0;align=center;spacingLeft=6;overflow=hidden;" vertex="1" parent="2R93lKAkQ-TtFPTku6nc-95">
          <mxGeometry x="111" width="209" height="30" as="geometry">
            <mxRectangle width="209" height="30" as="alternateBounds" />
          </mxGeometry>
        </mxCell>
        <mxCell id="2R93lKAkQ-TtFPTku6nc-98" value="" style="shape=tableRow;horizontal=0;startSize=0;swimlaneHead=0;swimlaneBody=0;top=0;left=0;bottom=0;right=0;collapsible=0;dropTarget=0;fillColor=none;points=[[0,0.5],[1,0.5]];portConstraint=eastwest;" vertex="1" parent="2R93lKAkQ-TtFPTku6nc-91">
          <mxGeometry y="90" width="320" height="30" as="geometry" />
        </mxCell>
        <mxCell id="2R93lKAkQ-TtFPTku6nc-99" value="picture" style="shape=partialRectangle;html=1;whiteSpace=wrap;connectable=0;fillColor=none;top=0;left=0;bottom=0;right=0;overflow=hidden;" vertex="1" parent="2R93lKAkQ-TtFPTku6nc-98">
          <mxGeometry width="111" height="30" as="geometry">
            <mxRectangle width="111" height="30" as="alternateBounds" />
          </mxGeometry>
        </mxCell>
        <mxCell id="2R93lKAkQ-TtFPTku6nc-100" value="string" style="shape=partialRectangle;html=1;whiteSpace=wrap;connectable=0;fillColor=none;top=0;left=0;bottom=0;right=0;align=center;spacingLeft=6;overflow=hidden;" vertex="1" parent="2R93lKAkQ-TtFPTku6nc-98">
          <mxGeometry x="111" width="209" height="30" as="geometry">
            <mxRectangle width="209" height="30" as="alternateBounds" />
          </mxGeometry>
        </mxCell>
        <mxCell id="2R93lKAkQ-TtFPTku6nc-101" value="" style="shape=tableRow;horizontal=0;startSize=0;swimlaneHead=0;swimlaneBody=0;top=0;left=0;bottom=0;right=0;collapsible=0;dropTarget=0;fillColor=none;points=[[0,0.5],[1,0.5]];portConstraint=eastwest;" vertex="1" parent="2R93lKAkQ-TtFPTku6nc-91">
          <mxGeometry y="120" width="320" height="30" as="geometry" />
        </mxCell>
        <mxCell id="2R93lKAkQ-TtFPTku6nc-102" value="main_category_id" style="shape=partialRectangle;html=1;whiteSpace=wrap;connectable=0;fillColor=none;top=0;left=0;bottom=0;right=0;overflow=hidden;" vertex="1" parent="2R93lKAkQ-TtFPTku6nc-101">
          <mxGeometry width="111" height="30" as="geometry">
            <mxRectangle width="111" height="30" as="alternateBounds" />
          </mxGeometry>
        </mxCell>
        <mxCell id="2R93lKAkQ-TtFPTku6nc-103" value="string?" style="shape=partialRectangle;html=1;whiteSpace=wrap;connectable=0;fillColor=none;top=0;left=0;bottom=0;right=0;align=center;spacingLeft=6;overflow=hidden;" vertex="1" parent="2R93lKAkQ-TtFPTku6nc-101">
          <mxGeometry x="111" width="209" height="30" as="geometry">
            <mxRectangle width="209" height="30" as="alternateBounds" />
          </mxGeometry>
        </mxCell>
        <mxCell id="2R93lKAkQ-TtFPTku6nc-104" value="" style="shape=tableRow;horizontal=0;startSize=0;swimlaneHead=0;swimlaneBody=0;top=0;left=0;bottom=0;right=0;collapsible=0;dropTarget=0;fillColor=none;points=[[0,0.5],[1,0.5]];portConstraint=eastwest;" vertex="1" parent="2R93lKAkQ-TtFPTku6nc-91">
          <mxGeometry y="150" width="320" height="30" as="geometry" />
        </mxCell>
        <mxCell id="2R93lKAkQ-TtFPTku6nc-105" value="tax_id" style="shape=partialRectangle;html=1;whiteSpace=wrap;connectable=0;fillColor=none;top=0;left=0;bottom=0;right=0;overflow=hidden;" vertex="1" parent="2R93lKAkQ-TtFPTku6nc-104">
          <mxGeometry width="111" height="30" as="geometry">
            <mxRectangle width="111" height="30" as="alternateBounds" />
          </mxGeometry>
        </mxCell>
        <mxCell id="2R93lKAkQ-TtFPTku6nc-106" value="string" style="shape=partialRectangle;html=1;whiteSpace=wrap;connectable=0;fillColor=none;top=0;left=0;bottom=0;right=0;align=center;spacingLeft=6;overflow=hidden;" vertex="1" parent="2R93lKAkQ-TtFPTku6nc-104">
          <mxGeometry x="111" width="209" height="30" as="geometry">
            <mxRectangle width="209" height="30" as="alternateBounds" />
          </mxGeometry>
        </mxCell>
        <mxCell id="2R93lKAkQ-TtFPTku6nc-107" value="" style="shape=tableRow;horizontal=0;startSize=0;swimlaneHead=0;swimlaneBody=0;top=0;left=0;bottom=0;right=0;collapsible=0;dropTarget=0;fillColor=none;points=[[0,0.5],[1,0.5]];portConstraint=eastwest;" vertex="1" parent="2R93lKAkQ-TtFPTku6nc-91">
          <mxGeometry y="180" width="320" height="30" as="geometry" />
        </mxCell>
        <mxCell id="2R93lKAkQ-TtFPTku6nc-108" value="sale_point_ids" style="shape=partialRectangle;html=1;whiteSpace=wrap;connectable=0;fillColor=none;top=0;left=0;bottom=0;right=0;overflow=hidden;" vertex="1" parent="2R93lKAkQ-TtFPTku6nc-107">
          <mxGeometry width="111" height="30" as="geometry">
            <mxRectangle width="111" height="30" as="alternateBounds" />
          </mxGeometry>
        </mxCell>
        <mxCell id="2R93lKAkQ-TtFPTku6nc-109" value="string[]" style="shape=partialRectangle;html=1;whiteSpace=wrap;connectable=0;fillColor=none;top=0;left=0;bottom=0;right=0;align=center;spacingLeft=6;overflow=hidden;" vertex="1" parent="2R93lKAkQ-TtFPTku6nc-107">
          <mxGeometry x="111" width="209" height="30" as="geometry">
            <mxRectangle width="209" height="30" as="alternateBounds" />
          </mxGeometry>
        </mxCell>
        <mxCell id="2R93lKAkQ-TtFPTku6nc-110" value="" style="shape=tableRow;horizontal=0;startSize=0;swimlaneHead=0;swimlaneBody=0;top=0;left=0;bottom=0;right=0;collapsible=0;dropTarget=0;fillColor=none;points=[[0,0.5],[1,0.5]];portConstraint=eastwest;" vertex="1" parent="2R93lKAkQ-TtFPTku6nc-91">
          <mxGeometry y="210" width="320" height="30" as="geometry" />
        </mxCell>
        <mxCell id="2R93lKAkQ-TtFPTku6nc-111" value="categories" style="shape=partialRectangle;html=1;whiteSpace=wrap;connectable=0;fillColor=none;top=0;left=0;bottom=0;right=0;overflow=hidden;" vertex="1" parent="2R93lKAkQ-TtFPTku6nc-110">
          <mxGeometry width="111" height="30" as="geometry">
            <mxRectangle width="111" height="30" as="alternateBounds" />
          </mxGeometry>
        </mxCell>
        <mxCell id="2R93lKAkQ-TtFPTku6nc-112" value="string[]" style="shape=partialRectangle;html=1;whiteSpace=wrap;connectable=0;fillColor=none;top=0;left=0;bottom=0;right=0;align=center;spacingLeft=6;overflow=hidden;" vertex="1" parent="2R93lKAkQ-TtFPTku6nc-110">
          <mxGeometry x="111" width="209" height="30" as="geometry">
            <mxRectangle width="209" height="30" as="alternateBounds" />
          </mxGeometry>
        </mxCell>
        <mxCell id="2R93lKAkQ-TtFPTku6nc-113" value="" style="shape=tableRow;horizontal=0;startSize=0;swimlaneHead=0;swimlaneBody=0;top=0;left=0;bottom=0;right=0;collapsible=0;dropTarget=0;fillColor=none;points=[[0,0.5],[1,0.5]];portConstraint=eastwest;" vertex="1" parent="2R93lKAkQ-TtFPTku6nc-91">
          <mxGeometry y="240" width="320" height="30" as="geometry" />
        </mxCell>
        <mxCell id="2R93lKAkQ-TtFPTku6nc-114" value="products" style="shape=partialRectangle;html=1;whiteSpace=wrap;connectable=0;fillColor=none;top=0;left=0;bottom=0;right=0;overflow=hidden;" vertex="1" parent="2R93lKAkQ-TtFPTku6nc-113">
          <mxGeometry width="111" height="30" as="geometry">
            <mxRectangle width="111" height="30" as="alternateBounds" />
          </mxGeometry>
        </mxCell>
        <mxCell id="2R93lKAkQ-TtFPTku6nc-115" value="string[]" style="shape=partialRectangle;html=1;whiteSpace=wrap;connectable=0;fillColor=none;top=0;left=0;bottom=0;right=0;align=center;spacingLeft=6;overflow=hidden;" vertex="1" parent="2R93lKAkQ-TtFPTku6nc-113">
          <mxGeometry x="111" width="209" height="30" as="geometry">
            <mxRectangle width="209" height="30" as="alternateBounds" />
          </mxGeometry>
        </mxCell>
        <mxCell id="2R93lKAkQ-TtFPTku6nc-117" style="edgeStyle=orthogonalEdgeStyle;rounded=0;orthogonalLoop=1;jettySize=auto;html=1;exitX=1;exitY=0.5;exitDx=0;exitDy=0;entryX=0;entryY=0.5;entryDx=0;entryDy=0;" edge="1" parent="WIyWlLk6GJQsqaUBKTNV-1" source="2R93lKAkQ-TtFPTku6nc-32" target="2R93lKAkQ-TtFPTku6nc-92">
          <mxGeometry relative="1" as="geometry" />
        </mxCell>
        <mxCell id="2R93lKAkQ-TtFPTku6nc-199" value="" style="edgeStyle=orthogonalEdgeStyle;rounded=0;orthogonalLoop=1;jettySize=auto;html=1;entryX=0.002;entryY=0.125;entryDx=0;entryDy=0;entryPerimeter=0;" edge="1" parent="WIyWlLk6GJQsqaUBKTNV-1" source="2R93lKAkQ-TtFPTku6nc-131" target="2R93lKAkQ-TtFPTku6nc-159">
          <mxGeometry relative="1" as="geometry" />
        </mxCell>
        <mxCell id="2R93lKAkQ-TtFPTku6nc-118" value="Product" style="shape=table;startSize=30;container=1;collapsible=0;childLayout=tableLayout;fixedRows=1;rowLines=0;fontStyle=1;fillColor=#647687;strokeColor=#314354;fontColor=#ffffff;" vertex="1" parent="WIyWlLk6GJQsqaUBKTNV-1">
          <mxGeometry x="-220" y="560" width="320" height="420" as="geometry" />
        </mxCell>
        <mxCell id="2R93lKAkQ-TtFPTku6nc-119" value="" style="shape=tableRow;horizontal=0;startSize=0;swimlaneHead=0;swimlaneBody=0;top=0;left=0;bottom=0;right=0;collapsible=0;dropTarget=0;fillColor=none;points=[[0,0.5],[1,0.5]];portConstraint=eastwest;" vertex="1" parent="2R93lKAkQ-TtFPTku6nc-118">
          <mxGeometry y="30" width="320" height="30" as="geometry" />
        </mxCell>
        <mxCell id="2R93lKAkQ-TtFPTku6nc-120" value="_id" style="shape=partialRectangle;html=1;whiteSpace=wrap;connectable=0;fillColor=none;top=0;left=0;bottom=0;right=0;overflow=hidden;pointerEvents=1;" vertex="1" parent="2R93lKAkQ-TtFPTku6nc-119">
          <mxGeometry width="130" height="30" as="geometry">
            <mxRectangle width="130" height="30" as="alternateBounds" />
          </mxGeometry>
        </mxCell>
        <mxCell id="2R93lKAkQ-TtFPTku6nc-121" value="string" style="shape=partialRectangle;html=1;whiteSpace=wrap;connectable=0;fillColor=none;top=0;left=0;bottom=0;right=0;align=center;spacingLeft=6;overflow=hidden;" vertex="1" parent="2R93lKAkQ-TtFPTku6nc-119">
          <mxGeometry x="130" width="190" height="30" as="geometry">
            <mxRectangle width="190" height="30" as="alternateBounds" />
          </mxGeometry>
        </mxCell>
        <mxCell id="2R93lKAkQ-TtFPTku6nc-122" value="" style="shape=tableRow;horizontal=0;startSize=0;swimlaneHead=0;swimlaneBody=0;top=0;left=0;bottom=0;right=0;collapsible=0;dropTarget=0;fillColor=none;points=[[0,0.5],[1,0.5]];portConstraint=eastwest;" vertex="1" parent="2R93lKAkQ-TtFPTku6nc-118">
          <mxGeometry y="60" width="320" height="30" as="geometry" />
        </mxCell>
        <mxCell id="2R93lKAkQ-TtFPTku6nc-123" value="name" style="shape=partialRectangle;html=1;whiteSpace=wrap;connectable=0;fillColor=none;top=0;left=0;bottom=0;right=0;overflow=hidden;" vertex="1" parent="2R93lKAkQ-TtFPTku6nc-122">
          <mxGeometry width="130" height="30" as="geometry">
            <mxRectangle width="130" height="30" as="alternateBounds" />
          </mxGeometry>
        </mxCell>
        <mxCell id="2R93lKAkQ-TtFPTku6nc-124" value="string" style="shape=partialRectangle;html=1;whiteSpace=wrap;connectable=0;fillColor=none;top=0;left=0;bottom=0;right=0;align=center;spacingLeft=6;overflow=hidden;" vertex="1" parent="2R93lKAkQ-TtFPTku6nc-122">
          <mxGeometry x="130" width="190" height="30" as="geometry">
            <mxRectangle width="190" height="30" as="alternateBounds" />
          </mxGeometry>
        </mxCell>
        <mxCell id="2R93lKAkQ-TtFPTku6nc-125" value="" style="shape=tableRow;horizontal=0;startSize=0;swimlaneHead=0;swimlaneBody=0;top=0;left=0;bottom=0;right=0;collapsible=0;dropTarget=0;fillColor=none;points=[[0,0.5],[1,0.5]];portConstraint=eastwest;" vertex="1" parent="2R93lKAkQ-TtFPTku6nc-118">
          <mxGeometry y="90" width="320" height="30" as="geometry" />
        </mxCell>
        <mxCell id="2R93lKAkQ-TtFPTku6nc-126" value="picture" style="shape=partialRectangle;html=1;whiteSpace=wrap;connectable=0;fillColor=none;top=0;left=0;bottom=0;right=0;overflow=hidden;" vertex="1" parent="2R93lKAkQ-TtFPTku6nc-125">
          <mxGeometry width="130" height="30" as="geometry">
            <mxRectangle width="130" height="30" as="alternateBounds" />
          </mxGeometry>
        </mxCell>
        <mxCell id="2R93lKAkQ-TtFPTku6nc-127" value="string" style="shape=partialRectangle;html=1;whiteSpace=wrap;connectable=0;fillColor=none;top=0;left=0;bottom=0;right=0;align=center;spacingLeft=6;overflow=hidden;" vertex="1" parent="2R93lKAkQ-TtFPTku6nc-125">
          <mxGeometry x="130" width="190" height="30" as="geometry">
            <mxRectangle width="190" height="30" as="alternateBounds" />
          </mxGeometry>
        </mxCell>
        <mxCell id="2R93lKAkQ-TtFPTku6nc-128" value="" style="shape=tableRow;horizontal=0;startSize=0;swimlaneHead=0;swimlaneBody=0;top=0;left=0;bottom=0;right=0;collapsible=0;dropTarget=0;fillColor=none;points=[[0,0.5],[1,0.5]];portConstraint=eastwest;" vertex="1" parent="2R93lKAkQ-TtFPTku6nc-118">
          <mxGeometry y="120" width="320" height="30" as="geometry" />
        </mxCell>
        <mxCell id="2R93lKAkQ-TtFPTku6nc-129" value="category_id" style="shape=partialRectangle;html=1;whiteSpace=wrap;connectable=0;fillColor=none;top=0;left=0;bottom=0;right=0;overflow=hidden;" vertex="1" parent="2R93lKAkQ-TtFPTku6nc-128">
          <mxGeometry width="130" height="30" as="geometry">
            <mxRectangle width="130" height="30" as="alternateBounds" />
          </mxGeometry>
        </mxCell>
        <mxCell id="2R93lKAkQ-TtFPTku6nc-130" value="string?" style="shape=partialRectangle;html=1;whiteSpace=wrap;connectable=0;fillColor=none;top=0;left=0;bottom=0;right=0;align=center;spacingLeft=6;overflow=hidden;" vertex="1" parent="2R93lKAkQ-TtFPTku6nc-128">
          <mxGeometry x="130" width="190" height="30" as="geometry">
            <mxRectangle width="190" height="30" as="alternateBounds" />
          </mxGeometry>
        </mxCell>
        <mxCell id="2R93lKAkQ-TtFPTku6nc-131" value="" style="shape=tableRow;horizontal=0;startSize=0;swimlaneHead=0;swimlaneBody=0;top=0;left=0;bottom=0;right=0;collapsible=0;dropTarget=0;fillColor=none;points=[[0,0.5],[1,0.5]];portConstraint=eastwest;" vertex="1" parent="2R93lKAkQ-TtFPTku6nc-118">
          <mxGeometry y="150" width="320" height="30" as="geometry" />
        </mxCell>
        <mxCell id="2R93lKAkQ-TtFPTku6nc-132" value="product_card_wrapper" style="shape=partialRectangle;html=1;whiteSpace=wrap;connectable=0;fillColor=none;top=0;left=0;bottom=0;right=0;overflow=hidden;" vertex="1" parent="2R93lKAkQ-TtFPTku6nc-131">
          <mxGeometry width="130" height="30" as="geometry">
            <mxRectangle width="130" height="30" as="alternateBounds" />
          </mxGeometry>
        </mxCell>
        <mxCell id="2R93lKAkQ-TtFPTku6nc-133" value="ProductCardWrapper[]" style="shape=partialRectangle;html=1;whiteSpace=wrap;connectable=0;fillColor=none;top=0;left=0;bottom=0;right=0;align=center;spacingLeft=6;overflow=hidden;" vertex="1" parent="2R93lKAkQ-TtFPTku6nc-131">
          <mxGeometry x="130" width="190" height="30" as="geometry">
            <mxRectangle width="190" height="30" as="alternateBounds" />
          </mxGeometry>
        </mxCell>
        <mxCell id="2R93lKAkQ-TtFPTku6nc-134" value="" style="shape=tableRow;horizontal=0;startSize=0;swimlaneHead=0;swimlaneBody=0;top=0;left=0;bottom=0;right=0;collapsible=0;dropTarget=0;fillColor=none;points=[[0,0.5],[1,0.5]];portConstraint=eastwest;" vertex="1" parent="2R93lKAkQ-TtFPTku6nc-118">
          <mxGeometry y="180" width="320" height="30" as="geometry" />
        </mxCell>
        <mxCell id="2R93lKAkQ-TtFPTku6nc-135" value="modifications_id" style="shape=partialRectangle;html=1;whiteSpace=wrap;connectable=0;fillColor=none;top=0;left=0;bottom=0;right=0;overflow=hidden;" vertex="1" parent="2R93lKAkQ-TtFPTku6nc-134">
          <mxGeometry width="130" height="30" as="geometry">
            <mxRectangle width="130" height="30" as="alternateBounds" />
          </mxGeometry>
        </mxCell>
        <mxCell id="2R93lKAkQ-TtFPTku6nc-136" value="string[]" style="shape=partialRectangle;html=1;whiteSpace=wrap;connectable=0;fillColor=none;top=0;left=0;bottom=0;right=0;align=center;spacingLeft=6;overflow=hidden;" vertex="1" parent="2R93lKAkQ-TtFPTku6nc-134">
          <mxGeometry x="130" width="190" height="30" as="geometry">
            <mxRectangle width="190" height="30" as="alternateBounds" />
          </mxGeometry>
        </mxCell>
        <mxCell id="2R93lKAkQ-TtFPTku6nc-137" value="" style="shape=tableRow;horizontal=0;startSize=0;swimlaneHead=0;swimlaneBody=0;top=0;left=0;bottom=0;right=0;collapsible=0;dropTarget=0;fillColor=none;points=[[0,0.5],[1,0.5]];portConstraint=eastwest;" vertex="1" parent="2R93lKAkQ-TtFPTku6nc-118">
          <mxGeometry y="210" width="320" height="30" as="geometry" />
        </mxCell>
        <mxCell id="2R93lKAkQ-TtFPTku6nc-138" value="unit" style="shape=partialRectangle;html=1;whiteSpace=wrap;connectable=0;fillColor=none;top=0;left=0;bottom=0;right=0;overflow=hidden;" vertex="1" parent="2R93lKAkQ-TtFPTku6nc-137">
          <mxGeometry width="130" height="30" as="geometry">
            <mxRectangle width="130" height="30" as="alternateBounds" />
          </mxGeometry>
        </mxCell>
        <mxCell id="2R93lKAkQ-TtFPTku6nc-139" value="string[]" style="shape=partialRectangle;html=1;whiteSpace=wrap;connectable=0;fillColor=none;top=0;left=0;bottom=0;right=0;align=center;spacingLeft=6;overflow=hidden;" vertex="1" parent="2R93lKAkQ-TtFPTku6nc-137">
          <mxGeometry x="130" width="190" height="30" as="geometry">
            <mxRectangle width="190" height="30" as="alternateBounds" />
          </mxGeometry>
        </mxCell>
        <mxCell id="2R93lKAkQ-TtFPTku6nc-140" value="" style="shape=tableRow;horizontal=0;startSize=0;swimlaneHead=0;swimlaneBody=0;top=0;left=0;bottom=0;right=0;collapsible=0;dropTarget=0;fillColor=none;points=[[0,0.5],[1,0.5]];portConstraint=eastwest;" vertex="1" parent="2R93lKAkQ-TtFPTku6nc-118">
          <mxGeometry y="240" width="320" height="30" as="geometry" />
        </mxCell>
        <mxCell id="2R93lKAkQ-TtFPTku6nc-141" value="cooking_losses" style="shape=partialRectangle;html=1;whiteSpace=wrap;connectable=0;fillColor=none;top=0;left=0;bottom=0;right=0;overflow=hidden;" vertex="1" parent="2R93lKAkQ-TtFPTku6nc-140">
          <mxGeometry width="130" height="30" as="geometry">
            <mxRectangle width="130" height="30" as="alternateBounds" />
          </mxGeometry>
        </mxCell>
        <mxCell id="2R93lKAkQ-TtFPTku6nc-142" value="string[]" style="shape=partialRectangle;html=1;whiteSpace=wrap;connectable=0;fillColor=none;top=0;left=0;bottom=0;right=0;align=center;spacingLeft=6;overflow=hidden;" vertex="1" parent="2R93lKAkQ-TtFPTku6nc-140">
          <mxGeometry x="130" width="190" height="30" as="geometry">
            <mxRectangle width="190" height="30" as="alternateBounds" />
          </mxGeometry>
        </mxCell>
        <mxCell id="2R93lKAkQ-TtFPTku6nc-144" value="" style="shape=tableRow;horizontal=0;startSize=0;swimlaneHead=0;swimlaneBody=0;top=0;left=0;bottom=0;right=0;collapsible=0;dropTarget=0;fillColor=none;points=[[0,0.5],[1,0.5]];portConstraint=eastwest;" vertex="1" parent="2R93lKAkQ-TtFPTku6nc-118">
          <mxGeometry y="270" width="320" height="30" as="geometry" />
        </mxCell>
        <mxCell id="2R93lKAkQ-TtFPTku6nc-145" value="frying_losses" style="shape=partialRectangle;html=1;whiteSpace=wrap;connectable=0;fillColor=none;top=0;left=0;bottom=0;right=0;overflow=hidden;" vertex="1" parent="2R93lKAkQ-TtFPTku6nc-144">
          <mxGeometry width="130" height="30" as="geometry">
            <mxRectangle width="130" height="30" as="alternateBounds" />
          </mxGeometry>
        </mxCell>
        <mxCell id="2R93lKAkQ-TtFPTku6nc-146" value="string[]" style="shape=partialRectangle;html=1;whiteSpace=wrap;connectable=0;fillColor=none;top=0;left=0;bottom=0;right=0;align=center;spacingLeft=6;overflow=hidden;" vertex="1" parent="2R93lKAkQ-TtFPTku6nc-144">
          <mxGeometry x="130" width="190" height="30" as="geometry">
            <mxRectangle width="190" height="30" as="alternateBounds" />
          </mxGeometry>
        </mxCell>
        <mxCell id="2R93lKAkQ-TtFPTku6nc-147" value="" style="shape=tableRow;horizontal=0;startSize=0;swimlaneHead=0;swimlaneBody=0;top=0;left=0;bottom=0;right=0;collapsible=0;dropTarget=0;fillColor=none;points=[[0,0.5],[1,0.5]];portConstraint=eastwest;" vertex="1" parent="2R93lKAkQ-TtFPTku6nc-118">
          <mxGeometry y="300" width="320" height="30" as="geometry" />
        </mxCell>
        <mxCell id="2R93lKAkQ-TtFPTku6nc-148" value="stewing_losses" style="shape=partialRectangle;html=1;whiteSpace=wrap;connectable=0;fillColor=none;top=0;left=0;bottom=0;right=0;overflow=hidden;" vertex="1" parent="2R93lKAkQ-TtFPTku6nc-147">
          <mxGeometry width="130" height="30" as="geometry">
            <mxRectangle width="130" height="30" as="alternateBounds" />
          </mxGeometry>
        </mxCell>
        <mxCell id="2R93lKAkQ-TtFPTku6nc-149" value="string[]" style="shape=partialRectangle;html=1;whiteSpace=wrap;connectable=0;fillColor=none;top=0;left=0;bottom=0;right=0;align=center;spacingLeft=6;overflow=hidden;" vertex="1" parent="2R93lKAkQ-TtFPTku6nc-147">
          <mxGeometry x="130" width="190" height="30" as="geometry">
            <mxRectangle width="190" height="30" as="alternateBounds" />
          </mxGeometry>
        </mxCell>
        <mxCell id="2R93lKAkQ-TtFPTku6nc-150" value="" style="shape=tableRow;horizontal=0;startSize=0;swimlaneHead=0;swimlaneBody=0;top=0;left=0;bottom=0;right=0;collapsible=0;dropTarget=0;fillColor=none;points=[[0,0.5],[1,0.5]];portConstraint=eastwest;" vertex="1" parent="2R93lKAkQ-TtFPTku6nc-118">
          <mxGeometry y="330" width="320" height="30" as="geometry" />
        </mxCell>
        <mxCell id="2R93lKAkQ-TtFPTku6nc-151" value="baking_losses" style="shape=partialRectangle;html=1;whiteSpace=wrap;connectable=0;fillColor=none;top=0;left=0;bottom=0;right=0;overflow=hidden;" vertex="1" parent="2R93lKAkQ-TtFPTku6nc-150">
          <mxGeometry width="130" height="30" as="geometry">
            <mxRectangle width="130" height="30" as="alternateBounds" />
          </mxGeometry>
        </mxCell>
        <mxCell id="2R93lKAkQ-TtFPTku6nc-152" value="string[]" style="shape=partialRectangle;html=1;whiteSpace=wrap;connectable=0;fillColor=none;top=0;left=0;bottom=0;right=0;align=center;spacingLeft=6;overflow=hidden;" vertex="1" parent="2R93lKAkQ-TtFPTku6nc-150">
          <mxGeometry x="130" width="190" height="30" as="geometry">
            <mxRectangle width="190" height="30" as="alternateBounds" />
          </mxGeometry>
        </mxCell>
        <mxCell id="2R93lKAkQ-TtFPTku6nc-153" value="" style="shape=tableRow;horizontal=0;startSize=0;swimlaneHead=0;swimlaneBody=0;top=0;left=0;bottom=0;right=0;collapsible=0;dropTarget=0;fillColor=none;points=[[0,0.5],[1,0.5]];portConstraint=eastwest;" vertex="1" parent="2R93lKAkQ-TtFPTku6nc-118">
          <mxGeometry y="360" width="320" height="30" as="geometry" />
        </mxCell>
        <mxCell id="2R93lKAkQ-TtFPTku6nc-154" value="peeling_losses" style="shape=partialRectangle;html=1;whiteSpace=wrap;connectable=0;fillColor=none;top=0;left=0;bottom=0;right=0;overflow=hidden;" vertex="1" parent="2R93lKAkQ-TtFPTku6nc-153">
          <mxGeometry width="130" height="30" as="geometry">
            <mxRectangle width="130" height="30" as="alternateBounds" />
          </mxGeometry>
        </mxCell>
        <mxCell id="2R93lKAkQ-TtFPTku6nc-155" value="string[]" style="shape=partialRectangle;html=1;whiteSpace=wrap;connectable=0;fillColor=none;top=0;left=0;bottom=0;right=0;align=center;spacingLeft=6;overflow=hidden;" vertex="1" parent="2R93lKAkQ-TtFPTku6nc-153">
          <mxGeometry x="130" width="190" height="30" as="geometry">
            <mxRectangle width="190" height="30" as="alternateBounds" />
          </mxGeometry>
        </mxCell>
        <mxCell id="2R93lKAkQ-TtFPTku6nc-156" value="" style="shape=tableRow;horizontal=0;startSize=0;swimlaneHead=0;swimlaneBody=0;top=0;left=0;bottom=0;right=0;collapsible=0;dropTarget=0;fillColor=none;points=[[0,0.5],[1,0.5]];portConstraint=eastwest;" vertex="1" parent="2R93lKAkQ-TtFPTku6nc-118">
          <mxGeometry y="390" width="320" height="30" as="geometry" />
        </mxCell>
        <mxCell id="2R93lKAkQ-TtFPTku6nc-157" value="other_losses" style="shape=partialRectangle;html=1;whiteSpace=wrap;connectable=0;fillColor=none;top=0;left=0;bottom=0;right=0;overflow=hidden;" vertex="1" parent="2R93lKAkQ-TtFPTku6nc-156">
          <mxGeometry width="130" height="30" as="geometry">
            <mxRectangle width="130" height="30" as="alternateBounds" />
          </mxGeometry>
        </mxCell>
        <mxCell id="2R93lKAkQ-TtFPTku6nc-158" value="string[]" style="shape=partialRectangle;html=1;whiteSpace=wrap;connectable=0;fillColor=none;top=0;left=0;bottom=0;right=0;align=center;spacingLeft=6;overflow=hidden;" vertex="1" parent="2R93lKAkQ-TtFPTku6nc-156">
          <mxGeometry x="130" width="190" height="30" as="geometry">
            <mxRectangle width="190" height="30" as="alternateBounds" />
          </mxGeometry>
        </mxCell>
        <mxCell id="2R93lKAkQ-TtFPTku6nc-159" value="ProductCardWrapper" style="shape=table;startSize=30;container=1;collapsible=0;childLayout=tableLayout;fixedRows=1;rowLines=0;fontStyle=1;fillColor=#a20025;fontColor=#ffffff;strokeColor=#6F0000;" vertex="1" parent="WIyWlLk6GJQsqaUBKTNV-1">
          <mxGeometry x="260" y="550" width="320" height="120" as="geometry" />
        </mxCell>
        <mxCell id="2R93lKAkQ-TtFPTku6nc-160" value="" style="shape=tableRow;horizontal=0;startSize=0;swimlaneHead=0;swimlaneBody=0;top=0;left=0;bottom=0;right=0;collapsible=0;dropTarget=0;fillColor=none;points=[[0,0.5],[1,0.5]];portConstraint=eastwest;" vertex="1" parent="2R93lKAkQ-TtFPTku6nc-159">
          <mxGeometry y="30" width="320" height="30" as="geometry" />
        </mxCell>
        <mxCell id="2R93lKAkQ-TtFPTku6nc-161" value="product_card_id" style="shape=partialRectangle;html=1;whiteSpace=wrap;connectable=0;fillColor=none;top=0;left=0;bottom=0;right=0;overflow=hidden;pointerEvents=1;" vertex="1" parent="2R93lKAkQ-TtFPTku6nc-160">
          <mxGeometry width="130" height="30" as="geometry">
            <mxRectangle width="130" height="30" as="alternateBounds" />
          </mxGeometry>
        </mxCell>
        <mxCell id="2R93lKAkQ-TtFPTku6nc-162" value="string" style="shape=partialRectangle;html=1;whiteSpace=wrap;connectable=0;fillColor=none;top=0;left=0;bottom=0;right=0;align=center;spacingLeft=6;overflow=hidden;" vertex="1" parent="2R93lKAkQ-TtFPTku6nc-160">
          <mxGeometry x="130" width="190" height="30" as="geometry">
            <mxRectangle width="190" height="30" as="alternateBounds" />
          </mxGeometry>
        </mxCell>
        <mxCell id="2R93lKAkQ-TtFPTku6nc-163" value="" style="shape=tableRow;horizontal=0;startSize=0;swimlaneHead=0;swimlaneBody=0;top=0;left=0;bottom=0;right=0;collapsible=0;dropTarget=0;fillColor=none;points=[[0,0.5],[1,0.5]];portConstraint=eastwest;" vertex="1" parent="2R93lKAkQ-TtFPTku6nc-159">
          <mxGeometry y="60" width="320" height="30" as="geometry" />
        </mxCell>
        <mxCell id="2R93lKAkQ-TtFPTku6nc-164" value="sale_point_id" style="shape=partialRectangle;html=1;whiteSpace=wrap;connectable=0;fillColor=none;top=0;left=0;bottom=0;right=0;overflow=hidden;" vertex="1" parent="2R93lKAkQ-TtFPTku6nc-163">
          <mxGeometry width="130" height="30" as="geometry">
            <mxRectangle width="130" height="30" as="alternateBounds" />
          </mxGeometry>
        </mxCell>
        <mxCell id="2R93lKAkQ-TtFPTku6nc-165" value="string" style="shape=partialRectangle;html=1;whiteSpace=wrap;connectable=0;fillColor=none;top=0;left=0;bottom=0;right=0;align=center;spacingLeft=6;overflow=hidden;" vertex="1" parent="2R93lKAkQ-TtFPTku6nc-163">
          <mxGeometry x="130" width="190" height="30" as="geometry">
            <mxRectangle width="190" height="30" as="alternateBounds" />
          </mxGeometry>
        </mxCell>
        <mxCell id="2R93lKAkQ-TtFPTku6nc-166" value="" style="shape=tableRow;horizontal=0;startSize=0;swimlaneHead=0;swimlaneBody=0;top=0;left=0;bottom=0;right=0;collapsible=0;dropTarget=0;fillColor=none;points=[[0,0.5],[1,0.5]];portConstraint=eastwest;" vertex="1" parent="2R93lKAkQ-TtFPTku6nc-159">
          <mxGeometry y="90" width="320" height="30" as="geometry" />
        </mxCell>
        <mxCell id="2R93lKAkQ-TtFPTku6nc-167" value="is_default" style="shape=partialRectangle;html=1;whiteSpace=wrap;connectable=0;fillColor=none;top=0;left=0;bottom=0;right=0;overflow=hidden;" vertex="1" parent="2R93lKAkQ-TtFPTku6nc-166">
          <mxGeometry width="130" height="30" as="geometry">
            <mxRectangle width="130" height="30" as="alternateBounds" />
          </mxGeometry>
        </mxCell>
        <mxCell id="2R93lKAkQ-TtFPTku6nc-168" value="bool" style="shape=partialRectangle;html=1;whiteSpace=wrap;connectable=0;fillColor=none;top=0;left=0;bottom=0;right=0;align=center;spacingLeft=6;overflow=hidden;" vertex="1" parent="2R93lKAkQ-TtFPTku6nc-166">
          <mxGeometry x="130" width="190" height="30" as="geometry">
            <mxRectangle width="190" height="30" as="alternateBounds" />
          </mxGeometry>
        </mxCell>
        <mxCell id="2R93lKAkQ-TtFPTku6nc-212" style="edgeStyle=orthogonalEdgeStyle;rounded=0;orthogonalLoop=1;jettySize=auto;html=1;exitX=1;exitY=0.5;exitDx=0;exitDy=0;entryX=1;entryY=0.5;entryDx=0;entryDy=0;" edge="1" parent="WIyWlLk6GJQsqaUBKTNV-1" source="2R93lKAkQ-TtFPTku6nc-35" target="2R93lKAkQ-TtFPTku6nc-17">
          <mxGeometry relative="1" as="geometry" />
        </mxCell>
        <mxCell id="2R93lKAkQ-TtFPTku6nc-211" style="edgeStyle=orthogonalEdgeStyle;rounded=0;orthogonalLoop=1;jettySize=auto;html=1;exitX=1;exitY=0.5;exitDx=0;exitDy=0;entryX=0;entryY=0.5;entryDx=0;entryDy=0;" edge="1" parent="WIyWlLk6GJQsqaUBKTNV-1" source="2R93lKAkQ-TtFPTku6nc-38" target="2R93lKAkQ-TtFPTku6nc-119">
          <mxGeometry relative="1" as="geometry">
            <Array as="points">
              <mxPoint x="-300" y="775" />
              <mxPoint x="-300" y="605" />
            </Array>
          </mxGeometry>
        </mxCell>
        <mxCell id="2R93lKAkQ-TtFPTku6nc-213" style="edgeStyle=orthogonalEdgeStyle;rounded=0;orthogonalLoop=1;jettySize=auto;html=1;exitX=1;exitY=0.5;exitDx=0;exitDy=0;entryX=1;entryY=0.5;entryDx=0;entryDy=0;" edge="1" parent="WIyWlLk6GJQsqaUBKTNV-1" source="2R93lKAkQ-TtFPTku6nc-163" target="2R93lKAkQ-TtFPTku6nc-92">
          <mxGeometry relative="1" as="geometry" />
        </mxCell>
      </root>
    </mxGraphModel>
  </diagram>
</mxfile>
